<?xml version="1.0" encoding="UTF-8" standalone="no"?>
<svg
   xmlns:dc="http://purl.org/dc/elements/1.1/"
   xmlns:cc="http://creativecommons.org/ns#"
   xmlns:rdf="http://www.w3.org/1999/02/22-rdf-syntax-ns#"
   xmlns:svg="http://www.w3.org/2000/svg"
   xmlns="http://www.w3.org/2000/svg"
   xmlns:sodipodi="http://sodipodi.sourceforge.net/DTD/sodipodi-0.dtd"
   xmlns:inkscape="http://www.inkscape.org/namespaces/inkscape"
   sodipodi:docname="logo-alt.svg"
   id="svg13"
   version="1.1"
   viewBox="0 0 255 50"
   height="50px"
   width="255px"
   inkscape:version="0.92.4 (fd57863, 2020-04-02)">
  <metadata
     id="metadata19">
    <rdf:RDF>
      <cc:Work
         rdf:about="">
        <dc:format>image/svg+xml</dc:format>
        <dc:type
           rdf:resource="http://purl.org/dc/dcmitype/StillImage" />
      </cc:Work>
    </rdf:RDF>
  </metadata>
  <defs
     id="defs17" />
  <sodipodi:namedview
     pagecolor="#ffffff"
     bordercolor="#666666"
     borderopacity="1"
     objecttolerance="10"
     gridtolerance="10"
     guidetolerance="10"
     inkscape:pageopacity="0"
     inkscape:pageshadow="2"
     inkscape:window-width="1920"
     inkscape:window-height="996"
     id="namedview15"
     showgrid="false"
     inkscape:zoom="10.980392"
     inkscape:cx="106.53713"
     inkscape:cy="26.136043"
     inkscape:window-x="0"
     inkscape:window-y="28"
     inkscape:window-maximized="1"
     inkscape:current-layer="Group-4" />
  <g
     id="Site"
     style="fill:none;fill-rule:evenodd;stroke:none;stroke-width:1">
    <g
       id="Home-Copy-33"
       transform="translate(-50,-8)"
       style="fill:#000000">
      <g
         id="Group-4">
        <g
           id="Group-2"
           transform="translate(50,8)">
          <g
             id="Group"
             transform="translate(70.769231,3.076923)"
             font-size="38.4615385"
             font-weight="normal"
             style="font-weight:normal;font-size:38.46154022px;font-family:Ubuntu-Regular, Ubuntu">
            <g
               aria-label="AstroKube"
               id="AstroKube">
              <path
                 d="m 21.115386,36 q -0.653847,-1.730769 -1.23077,-3.384616 -0.576923,-1.692307 -1.192307,-3.423077 H 6.6153849 L 4.1923079,36 H 0.30769232 Q 1.8461539,31.769231 3.1923078,28.192307 4.5384617,24.576923 5.8076926,21.346153 7.1153849,18.115384 8.3846158,15.192307 9.6538466,12.230768 11.038462,9.3461526 h 3.423077 q 1.384616,2.8846154 2.653846,5.8461544 1.269231,2.923077 2.538462,6.153846 1.307692,3.23077 2.653846,6.846154 Q 23.653847,31.769231 25.192309,36 Z m -3.500001,-9.884616 q -1.230769,-3.346154 -2.461538,-6.461539 -1.192308,-3.153846 -2.5,-6.038461 -1.346154,2.884615 -2.576923,6.038461 -1.1923082,3.115385 -2.384616,6.461539 z"
                 id="path4595"
                 inkscape:connector-curvature="0" />
              <path
                 d="m 33.722358,33.423077 q 2.192308,0 3.23077,-0.576923 Q 38.030051,32.269231 38.030051,31 q 0,-1.307693 -1.038462,-2.076923 -1.038461,-0.769231 -3.423077,-1.73077 -1.153846,-0.461538 -2.230769,-0.923077 -1.038462,-0.5 -1.807693,-1.153846 -0.769231,-0.653846 -1.230769,-1.576923 -0.461538,-0.923077 -0.461538,-2.269231 0,-2.653846 1.961538,-4.192308 1.961539,-1.576923 5.346154,-1.576923 0.846154,0 1.692308,0.115385 0.846154,0.07692 1.576923,0.230769 0.730769,0.115385 1.269231,0.269231 0.576923,0.153846 0.884615,0.26923 l -0.653846,3.076924 q -0.576923,-0.307693 -1.807692,-0.615385 -1.23077,-0.346154 -2.961539,-0.346154 -1.5,0 -2.615385,0.615385 -1.115384,0.576923 -1.115384,1.846154 0,0.653846 0.230769,1.153846 0.269231,0.5 0.769231,0.923077 0.538461,0.384615 1.307692,0.730769 0.769231,0.346154 1.846154,0.730769 1.423077,0.538462 2.538462,1.076924 1.115384,0.5 1.884615,1.192307 0.807693,0.692308 1.23077,1.692308 0.423076,0.961539 0.423076,2.384616 0,2.769231 -2.076923,4.192307 -2.038461,1.423077 -5.846154,1.423077 -2.653846,0 -4.153846,-0.461538 -1.5,-0.423077 -2.038462,-0.653846 l 0.653846,-3.076923 q 0.615385,0.230769 1.961539,0.692307 1.346154,0.461539 3.576923,0.461539 z"
                 id="path4597"
                 inkscape:connector-curvature="0" />
              <path
                 d="m 49.542073,15.999999 h 7.576923 v 3 h -7.576923 v 9.23077 q 0,1.5 0.230769,2.5 0.230769,0.961538 0.692308,1.538462 0.461538,0.538461 1.153846,0.76923 0.692308,0.23077 1.615385,0.23077 1.615384,0 2.576923,-0.346154 1,-0.384616 1.384615,-0.538462 l 0.692308,2.961539 Q 57.349766,35.615385 56.003612,36 q -1.346154,0.423077 -3.076924,0.423077 -2.038461,0 -3.384615,-0.5 Q 48.234381,35.384615 47.426688,34.346154 46.618996,33.307692 46.272842,31.807692 45.96515,30.269231 45.96515,28.26923 V 10.423076 l 3.576923,-0.6153849 z"
                 id="path4599"
                 inkscape:connector-curvature="0" />
              <path
                 d="m 69.055293,15.576922 q 0.461538,0 1.038461,0.07692 0.615385,0.03846 1.192308,0.153846 0.576923,0.07692 1.038462,0.192308 0.5,0.07692 0.730769,0.153846 l -0.615385,3.115385 q -0.423077,-0.153846 -1.423077,-0.346154 -0.961538,-0.230769 -2.5,-0.230769 -1,0 -2,0.230769 -0.961538,0.192308 -1.269231,0.269231 V 36 H 61.670677 V 16.846153 q 1.269231,-0.461539 3.153846,-0.846154 1.884616,-0.423077 4.23077,-0.423077 z"
                 id="path4601"
                 inkscape:connector-curvature="0" />
              <path
                 d="m 94.198322,26 q 0,2.384615 -0.692307,4.307692 -0.692308,1.923077 -1.961539,3.307693 Q 90.313707,35 88.582937,35.769231 86.852168,36.5 84.813707,36.5 82.775245,36.5 81.044476,35.769231 79.313706,35 78.044475,33.615385 76.813706,32.230769 76.121398,30.307692 75.429091,28.384615 75.429091,26 q 0,-2.346154 0.692307,-4.269231 0.692308,-1.961539 1.923077,-3.346154 1.269231,-1.384616 3.000001,-2.115385 1.730769,-0.769231 3.769231,-0.769231 2.038461,0 3.76923,0.769231 1.73077,0.730769 2.961539,2.115385 1.269231,1.384615 1.961539,3.346154 Q 94.198322,23.653846 94.198322,26 Z m -3.730769,0 q 0,-3.384616 -1.538462,-5.346155 -1.5,-2 -4.115384,-2 -2.615385,0 -4.153847,2 -1.5,1.961539 -1.5,5.346155 0,3.384615 1.5,5.384615 1.538462,1.961539 4.153847,1.961539 2.615384,0 4.115384,-1.961539 1.538462,-2 1.538462,-5.384615 z"
                 id="path4603"
                 inkscape:connector-curvature="0" />
              <path
                 d="m 119.19232,9.3461526 q -1.19231,1.3076924 -2.69231,2.9230774 -1.5,1.576923 -3.15385,3.269231 -1.61538,1.653846 -3.23077,3.269231 -1.61538,1.615384 -3.03846,3 1.65385,1.153846 3.5,2.846154 1.84616,1.692307 3.61539,3.615384 1.76923,1.923077 3.30769,3.923078 1.57692,2 2.61538,3.807692 h -4.38461 q -1.15385,-1.807692 -2.65385,-3.615385 -1.5,-1.846154 -3.19231,-3.5 -1.65384,-1.692308 -3.38461,-3.115385 -1.69231,-1.423077 -3.30769,-2.423077 V 36 H 99.461547 V 9.3461526 h 3.730773 V 21.115384 q 1.34615,-1.269231 2.96153,-2.846154 1.61539,-1.615385 3.19231,-3.230769 1.57693,-1.615385 2.96154,-3.076924 1.42308,-1.5 2.38462,-2.6153844 z"
                 id="path4605"
                 inkscape:connector-curvature="0" />
              <path
                 d="m 138.81671,35.423077 q -1.23077,0.307692 -3.26923,0.653846 -2,0.346154 -4.65384,0.346154 -2.3077,0 -3.88462,-0.653846 -1.57692,-0.692308 -2.53846,-1.923077 -0.96154,-1.23077 -1.38462,-2.884616 -0.42307,-1.692308 -0.42307,-3.730769 v -11.23077 h 3.57692 v 10.461539 q 0,3.653846 1.15384,5.230769 1.15385,1.576924 3.88462,1.576924 0.57692,0 1.19231,-0.03846 0.61538,-0.03846 1.15384,-0.07692 0.53847,-0.07692 0.96154,-0.115385 0.46154,-0.07692 0.65385,-0.153846 V 15.999999 h 3.57692 z"
                 id="path4607"
                 inkscape:connector-curvature="0" />
              <path
                 d="m 148.5559,16.884615 q 0.65385,-0.423077 1.96154,-0.884616 1.34615,-0.461538 3.07692,-0.461538 2.15385,0 3.80769,0.76923 1.69231,0.769231 2.84616,2.153847 1.15384,1.384615 1.73077,3.307692 0.61538,1.923077 0.61538,4.23077 0,2.423077 -0.73077,4.384615 -0.6923,1.923077 -2,3.269231 -1.30769,1.346154 -3.15384,2.076923 -1.84616,0.730769 -4.15385,0.730769 -2.5,0 -4.42308,-0.346153 -1.92307,-0.346154 -3.15384,-0.692308 V 6.7692294 l 3.57692,-0.6153846 z m 0,16 q 0.53846,0.153846 1.5,0.307693 1,0.115384 2.46154,0.115384 2.88461,0 4.61538,-1.884615 Q 158.86359,29.5 158.86359,26 q 0,-1.538462 -0.30769,-2.884616 -0.30769,-1.346154 -1,-2.307692 -0.69231,-1 -1.80769,-1.538462 -1.07692,-0.576923 -2.61539,-0.576923 -1.46153,0 -2.6923,0.5 -1.23077,0.5 -1.88462,1.038462 z"
                 id="path4609"
                 inkscape:connector-curvature="0" />
              <path
                 d="m 166.54989,26.038461 q 0,-2.653846 0.76923,-4.615385 0.76923,-2 2.03846,-3.307692 1.26923,-1.307693 2.92308,-1.961539 1.65384,-0.653846 3.38461,-0.653846 4.03846,0 6.19231,2.538462 2.15385,2.5 2.15385,7.653846 0,0.230769 0,0.615385 0,0.346154 -0.0385,0.653846 h -13.6923 q 0.23077,3.115385 1.80769,4.730769 1.57692,1.615385 4.92308,1.615385 1.88461,0 3.15384,-0.307692 1.30769,-0.346154 1.96154,-0.653846 l 0.5,3 q -0.65385,0.346154 -2.30769,0.730769 -1.61539,0.384615 -3.69231,0.384615 -2.61538,0 -4.53846,-0.76923 -1.88462,-0.807693 -3.11539,-2.192308 -1.23077,-1.384616 -1.84615,-3.269231 -0.57692,-1.923077 -0.57692,-4.192308 z m 13.73077,-1.961538 q 0.0385,-2.423078 -1.23077,-3.961539 -1.23077,-1.576923 -3.42308,-1.576923 -1.23077,0 -2.19231,0.5 -0.92307,0.461538 -1.57692,1.230769 -0.65385,0.769231 -1.03846,1.769231 -0.34616,1 -0.46154,2.038462 z"
                 id="path4611"
                 inkscape:connector-curvature="0" />
            </g>
          </g>
          <g
             id="logo"
             style="fill-rule:nonzero">
            <g
               id="Group-4-Copy-4">
              <path
                 d="m 54.508136,32.432312 c 6.114745,-1.987351 9.172118,-4.346644 9.172118,-7.07788 0,-2.731236 -3.057373,-5.211688 -9.172118,-7.441355 v 0 z m -41.167739,2.299475 8e-6,1.828422 18.995252,11.075261 7e-6,-10.373049 C 23.204744,36.65195 16.872989,35.808405 13.340397,34.731787 Z m -7.4e-4,-20.320317 3.69e-4,18.547905 c 3.985796,1.303108 10.087761,2.16415 18.305895,2.583127 l 0.689743,0.03388 V 25.447537 Z m -1.5837,2.64 0.04062,-0.01079 c -6.0937779,1.725358 -9.4045682,3.989256 -9.9323709,6.791694 -0.89843592,4.770363 5.6619612,7.070729 9.8928409,8.570364 z M 33.145383,1.946817 14.137137,13.022678 l -0.0045,0.0078 19.085165,11.068128 19.002615,-11.071434 z m 11.010189,32.860834 c -3.460437,0.494205 -7.059475,0.750704 -10.797115,0.769499 l -1.022793,-7.67e-4 v 1.686038 h 0.809719 c 3.737853,-0.02826 7.463742,-0.308926 11.177668,-0.83836 3.428239,-0.488708 6.584755,-1.149419 9.469548,-1.982133 l 0.715537,-0.211761 V 37.51473 L 33.145383,49.939072 11.756657,37.482044 11.755973,34.185185 C 3.6682896,31.226546 -0.81422216,27.966477 0.15037632,23.832372 1.0931866,19.791646 4.9618004,16.953041 11.756218,15.316557 L 11.756657,12.559464 33.145383,0.10247037 54.508136,12.559464 v 3.592081 c 7.21027,2.595002 10.815404,5.66263 10.815404,9.202887 0,3.540256 -3.605134,6.498834 -10.815404,8.875735 v 0 -1.790432 c -3.126687,1.039478 -6.577542,1.828783 -10.352564,2.367916 z"
                 id="Combined-Shape"
                 inkscape:connector-curvature="0" />
            </g>
          </g>
        </g>
      </g>
    </g>
  </g>
</svg>
